<svg xmlns="http://www.w3.org/2000/svg" width="39.485" height="39.485" viewBox="0 0 39.485 39.485">
  <g id="Group_81" data-name="Group 81" transform="translate(-138.5 -467.015)">
    <path id="Icon_akar-book" data-name="Icon akar-book" d="M3,7.761A6.2,6.2,0,0,1,7.778,6a6.2,6.2,0,0,1,4.778,1.761V20.09a9.823,9.823,0,0,0-4.778-.881A9.823,9.823,0,0,0,3,20.09Zm9.555,0A6.2,6.2,0,0,1,17.333,6,6.2,6.2,0,0,1,22.11,7.761V20.09a9.823,9.823,0,0,0-4.778-.881,9.823,9.823,0,0,0-4.778.881Z" transform="translate(144.961 473.563)" fill="none" stroke="#129dd6" stroke-linecap="round" stroke-linejoin="round" stroke-width="2"/>
    <path id="Path_23" data-name="Path 23" d="M39.485,21.242A18.242,18.242,0,1,1,21.242,3,18.242,18.242,0,0,1,39.485,21.242Z" transform="translate(137 465.515)" fill="none" stroke="#129dd6" stroke-linecap="round" stroke-linejoin="round" stroke-width="3"/>
  </g>
</svg>
