<svg xmlns="http://www.w3.org/2000/svg" width="17.837" height="16.584" viewBox="0 0 17.837 16.584">
  <g id="SVGRepo_iconCarrier" transform="translate(-2.331 -2.861)">
    <path id="Path_22" data-name="Path 22" d="M3.026,9.579l6.6,4.511a4.117,4.117,0,0,0,1.2.679,1.8,1.8,0,0,0,.854,0,4.117,4.117,0,0,0,1.2-.679l6.6-4.511M9.69,4.024,4.373,7.435a4.042,4.042,0,0,0-.934.7,1.885,1.885,0,0,0-.356.658A4.208,4.208,0,0,0,3,9.974v5.974a4.748,4.748,0,0,0,.2,1.974,1.854,1.854,0,0,0,.8.819,4.464,4.464,0,0,0,1.932.2H16.567a4.464,4.464,0,0,0,1.932-.2,1.853,1.853,0,0,0,.8-.819,4.748,4.748,0,0,0,.2-1.974V9.974a4.209,4.209,0,0,0-.084-1.18,1.885,1.885,0,0,0-.356-.658,4.041,4.041,0,0,0-.934-.7L12.81,4.024a4.074,4.074,0,0,0-1.152-.615,1.8,1.8,0,0,0-.816,0A4.074,4.074,0,0,0,9.69,4.024Z" transform="translate(0 0)" fill="none" stroke="#129dd6" stroke-linecap="round" stroke-linejoin="round" stroke-width="1"/>
  </g>
</svg>
