<svg xmlns="http://www.w3.org/2000/svg" width="17.504" height="17.501" viewBox="0 0 17.504 17.501">
  <g id="SVGRepo_iconCarrier" transform="translate(-1.499 -1.5)">
    <path id="Path_21" data-name="Path 21" d="M3.246,2l3,.109A1.618,1.618,0,0,1,7.685,3.13l.888,2.2a1.694,1.694,0,0,1-.148,1.554L7.287,8.631a20.36,20.36,0,0,0,4.444,4.559l1.446-.89a1.581,1.581,0,0,1,1.223-.187l2.875.737A1.654,1.654,0,0,1,18.5,14.586l-.185,2.461A1.5,1.5,0,0,1,16.7,18.491C5.624,17.2-.871,2,3.246,2Z" transform="translate(0 0)" fill="none" stroke="#129dd6" stroke-linecap="round" stroke-linejoin="round" stroke-width="1"/>
  </g>
</svg>
