<svg xmlns="http://www.w3.org/2000/svg" width="60.716" height="43.557" viewBox="0 0 60.716 43.557">
  <g id="Icon_feather-youtube" data-name="Icon feather-youtube" transform="translate(0.001 -4.5)">
    <path id="Path_18" data-name="Path 18" d="M58.007,12.348A7.293,7.293,0,0,0,52.918,7.1C48.406,6,30.357,6,30.357,6S12.309,6,7.8,7.207a7.293,7.293,0,0,0-5.089,5.247A76.077,76.077,0,0,0,1.5,26.331,76.077,76.077,0,0,0,2.707,40.313,7.293,7.293,0,0,0,7.8,45.35c4.512,1.207,22.561,1.207,22.561,1.207s18.048,0,22.561-1.207A7.293,7.293,0,0,0,58.007,40.1a76.076,76.076,0,0,0,1.207-13.772,76.075,76.075,0,0,0-1.207-13.982Z" fill="none" stroke="#129dd6" stroke-linecap="round" stroke-linejoin="round" stroke-width="3"/>
    <path id="Path_19" data-name="Path 19" d="M14.625,29.877,29.709,21.3,14.625,12.72V29.877Z" transform="translate(9.83 5.033)" fill="none" stroke="#129dd6" stroke-linecap="round" stroke-linejoin="round" stroke-width="3"/>
  </g>
</svg>
