<svg xmlns="http://www.w3.org/2000/svg" width="44.352" height="44.352" viewBox="0 0 44.352 44.352">
  <path id="Icon_akar-instagram-fill" data-name="Icon akar-instagram-fill" d="M14.533,1.633C16.9,1.524,17.652,1.5,23.676,1.5s6.778.026,9.14.133A16.32,16.32,0,0,1,38.2,2.663a11.352,11.352,0,0,1,6.483,6.485,16.309,16.309,0,0,1,1.032,5.383c.109,2.369.133,3.123.133,9.144s-.026,6.778-.133,9.142A16.257,16.257,0,0,1,44.686,38.2,11.321,11.321,0,0,1,38.2,44.686a16.309,16.309,0,0,1-5.383,1.032c-2.367.109-3.121.133-9.144.133s-6.778-.026-9.142-.133a16.257,16.257,0,0,1-5.383-1.032A10.88,10.88,0,0,1,5.221,42.13,10.87,10.87,0,0,1,2.663,38.2a16.367,16.367,0,0,1-1.03-5.383C1.524,30.451,1.5,29.7,1.5,23.676s.026-6.778.133-9.14a16.32,16.32,0,0,1,1.03-5.387,10.878,10.878,0,0,1,2.56-3.927A10.87,10.87,0,0,1,9.149,2.663a16.367,16.367,0,0,1,5.383-1.03Zm18.1,3.992C30.3,5.518,29.6,5.5,23.676,5.5s-6.622.022-8.961.129a12.257,12.257,0,0,0-4.119.764,6.886,6.886,0,0,0-2.55,1.657A6.879,6.879,0,0,0,6.389,10.6a12.257,12.257,0,0,0-.764,4.119c-.107,2.339-.129,3.04-.129,8.961s.022,6.622.129,8.961a12.257,12.257,0,0,0,.764,4.119,6.884,6.884,0,0,0,1.657,2.55,6.884,6.884,0,0,0,2.55,1.657,12.257,12.257,0,0,0,4.119.764c2.339.107,3.038.129,8.961.129s6.622-.022,8.961-.129a12.257,12.257,0,0,0,4.119-.764,7.324,7.324,0,0,0,4.207-4.207,12.257,12.257,0,0,0,.764-4.119c.107-2.339.129-3.04.129-8.961s-.022-6.622-.129-8.961a12.257,12.257,0,0,0-.764-4.119,6.886,6.886,0,0,0-1.657-2.55,6.881,6.881,0,0,0-2.55-1.657,12.257,12.257,0,0,0-4.119-.764ZM20.843,30.512a7.4,7.4,0,1,0-4.565-6.835,7.4,7.4,0,0,0,4.565,6.835Zm-5.227-14.9a11.4,11.4,0,1,1,0,16.12,11.4,11.4,0,0,1,0-16.12ZM37.6,13.975a2.7,2.7,0,1,0-3.755-.055A2.7,2.7,0,0,0,37.6,13.975Z" transform="translate(-1.5 -1.5)" fill="#129dd6"/>
</svg>
