<svg xmlns="http://www.w3.org/2000/svg" width="33.984" height="37.609" viewBox="0 0 33.984 37.609">
  <path id="Icon_material-share" data-name="Icon material-share" d="M32.82,29.583a5.5,5.5,0,0,0-3.7,1.454L15.658,23.2a6.181,6.181,0,0,0,.17-1.322,6.181,6.181,0,0,0-.17-1.322L28.969,12.8a5.651,5.651,0,1,0-1.812-4.135,6.18,6.18,0,0,0,.17,1.322l-13.311,7.76a5.664,5.664,0,1,0,0,8.27l13.443,7.854a5.326,5.326,0,0,0-.151,1.227,5.513,5.513,0,1,0,5.513-5.513Z" transform="translate(-4.5 -3)" fill="#5fef5c"/>
</svg>
