<svg xmlns="http://www.w3.org/2000/svg" width="19.956" height="20.028" viewBox="0 0 19.956 20.028">
  <path id="Icon_akar-star" data-name="Icon akar-star" d="M11.583,3.6a.939.939,0,0,1,1.752,0l1.958,5.447a.937.937,0,0,0,.876.6h4.812a.925.925,0,0,1,.578,1.656L18.135,14.4a.922.922,0,0,0-.3,1.037l1.251,5.323a.933.933,0,0,1-1.427,1.063L13,18.859a.943.943,0,0,0-1.088,0L7.264,21.823A.934.934,0,0,1,5.838,20.76l1.251-5.323a.922.922,0,0,0-.3-1.037L3.359,11.306A.925.925,0,0,1,3.936,9.65H8.748a.936.936,0,0,0,.876-.6L11.582,3.6Z" transform="translate(-2.482 -2.5)" fill="#010726" stroke="#31a9da" stroke-linecap="round" stroke-linejoin="round" stroke-width="1"/>
</svg>
