<svg xmlns="http://www.w3.org/2000/svg" width="43.086" height="43.086" viewBox="0 0 43.086 43.086">
  <g id="Icon_ion-social-linkedin-outline" data-name="Icon ion-social-linkedin-outline" transform="translate(-4.5 -4.5)">
    <path id="Path_15" data-name="Path 15" d="M15.155,37.731v-19.2H8.993v19.2ZM12.3,15.622a3.187,3.187,0,0,0,3.333-3.311A3.179,3.179,0,0,0,12.337,9,3.188,3.188,0,0,0,9,12.311a3.168,3.168,0,0,0,3.255,3.311Z" transform="translate(2.679 2.683)" fill="#129dd6"/>
    <path id="Path_16" data-name="Path 16" d="M26.927,14.7a6.248,6.248,0,0,0-5.567,3.12V15.144H15.188V34.336H21.36V23.4a4.119,4.119,0,0,1,.213-1.515,3.377,3.377,0,0,1,3.165-2.278c2.233,0,3.131,1.717,3.131,4.231V34.336h6.173V23.124c0-5.758-3.053-8.429-7.116-8.429Z" transform="translate(6.372 6.078)" fill="#129dd6"/>
    <path id="Path_17" data-name="Path 17" d="M44.14,4.5H8.181A3.515,3.515,0,0,0,4.5,7.856V43.893a3.791,3.791,0,0,0,3.681,3.692H44.129a3.6,3.6,0,0,0,3.457-3.692V7.856A3.3,3.3,0,0,0,44.14,4.5Zm-.359,39.506H8.439a.343.343,0,0,1-.348-.348V8.316a.233.233,0,0,1,.224-.224H43.781a.241.241,0,0,1,.224.224V43.781A.241.241,0,0,1,43.781,44.006Z" fill="#129dd6"/>
  </g>
</svg>
