<svg xmlns="http://www.w3.org/2000/svg" xmlns:xlink="http://www.w3.org/1999/xlink" width="41" height="41" viewBox="0 0 41 41">
  <defs>
    <clipPath id="clip-path">
      <rect id="Rectangle_202" data-name="Rectangle 202" width="15.7" height="19.566" fill="none" stroke="#129dd6" stroke-width="1"/>
    </clipPath>
  </defs>
  <g id="Group_76" data-name="Group 76" transform="translate(-855 -523)">
    <g id="Group_75" data-name="Group 75" transform="translate(866.673 533.588)">
      <g id="Group_74" data-name="Group 74" clip-path="url(#clip-path)">
        <path id="Path_24" data-name="Path 24" d="M43.467,8.068V0H55.823V8.067h-.718a5.121,5.121,0,0,1-1.219,3.075,3.106,3.106,0,0,0-.9-2.755.775.775,0,0,0-.681-.326c-2.781.012-5.561.007-8.342.007h-.5M49.657,2.7q2.268,0,4.537,0c.292,0,.629.007.637-.376.008-.42-.349-.394-.65-.394H45.108c-.115,0-.257-.032-.339.022-.125.082-.283.225-.287.346s.143.28.265.362a.739.739,0,0,0,.374.036q2.268,0,4.537,0m-.039,1.172h4.726c.28,0,.5-.1.492-.408-.007-.279-.221-.381-.484-.38H45.131a.758.758,0,0,0-.375.032c-.124.081-.273.235-.275.359s.147.275.267.364c.077.057.222.03.337.03h4.534m.027,1.076c1.55,0,3.1,0,4.649,0,.289,0,.542-.07.539-.4s-.262-.4-.548-.392c-.038,0-.077,0-.115,0H45.1c-.115,0-.263-.031-.337.027a.674.674,0,0,0-.284.392c-.006.112.165.262.291.344.082.054.224.022.339.022h4.533m0,1.154h4.228a1.844,1.844,0,0,0,.572-.016c.153-.052.267-.219.4-.335a2.661,2.661,0,0,0-.387-.4c-.079-.055-.224-.015-.339-.015h-8.8c-.115,0-.231,0-.346,0-.276,0-.506.086-.5.4.005.289.224.365.486.365q2.345,0,4.69,0" transform="translate(-40.124 -0.001)" fill="none" stroke="#129dd6" stroke-width="1"/>
        <path id="Path_25" data-name="Path 25" d="M0,195.489c.313-.524.612-1.025.912-1.525.218-.362.451-.716.652-1.087a.779.779,0,0,1,.788-.422c1.332.015,2.665,0,4,.015a.617.617,0,0,0,.633-.363,9.389,9.389,0,0,1,.7-1.146.825.825,0,0,1,.5-.351c.671-.041,1.346-.016,2.066-.016l-.22.283h.1a3.863,3.863,0,0,1,.107.666c-.007.679-.066,1.358-.055,2.035a4.2,4.2,0,0,0,.229.9.99.99,0,0,0,.442-.952c-.071-.7-.094-1.406-.118-2.11a3.33,3.33,0,0,1,.1-.608l-.162-.22c.7,0,1.347-.021,1.994.014a.725.725,0,0,1,.5.294c.756,1.2,1.486,2.423,2.22,3.641a1.919,1.919,0,0,1,.116.327H8.449l.339.625Z" transform="translate(0 -175.923)" fill="none" stroke="#129dd6" stroke-width="1"/>
        <path id="Path_26" data-name="Path 26" d="M33.316,148.2a2.185,2.185,0,1,1-4.328-.136,2.377,2.377,0,0,1,1.726-2.285,2.213,2.213,0,0,1,2.6,2.076c.01.114,0,.23,0,.346" transform="translate(-26.753 -134.517)" fill="none" stroke="#129dd6" stroke-width="1"/>
        <path id="Path_27" data-name="Path 27" d="M109.688,126.992a2.352,2.352,0,0,1-2.152-2.762,2.2,2.2,0,1,1,2.152,2.762" transform="translate(-99.241 -112.737)" fill="none" stroke="#129dd6" stroke-width="1"/>
      </g>
    </g>
    <g id="Ellipse_12" data-name="Ellipse 12" transform="translate(855 523)" fill="none" stroke="#129dd6" stroke-width="3">
      <circle cx="20.5" cy="20.5" r="20.5" stroke="none"/>
      <circle cx="20.5" cy="20.5" r="19" fill="none"/>
    </g>
  </g>
</svg>
